<?xml version="1.0" encoding="UTF-8"?>
<svg width="30px" height="30px" viewBox="0 0 30 30" version="1.1" xmlns="http://www.w3.org/2000/svg" xmlns:xlink="http://www.w3.org/1999/xlink">
    <title>Logo</title>
    <defs>
        <path d="M14.3998117,0.983481242 L25.8295851,11.0522596 L25.5852886,11.0576222 L18.5560746,11.0576222 L16.2409977,23.9610033 L10.2875544,23.9610033 L12.6000131,11.0576222 L7.93179491,11.0576222 L3.72558512,6.569468 L13.4068159,6.55298313 L14.3998117,0.983481242 Z" id="path-1"></path>
    </defs>
    <g id="Logo" stroke="none" stroke-width="1" fill="none" fill-rule="evenodd">
        <g id="编组" transform="translate(1.000000, 3.000000)">
            <path d="M22.3574128,9.93064329e-06 L4.61097365,9.93064329e-06 C4.36607295,9.93064329e-06 4.15661841,0.17339896 4.11402261,0.411138556 L0.00780722064,23.3770418 C-0.046671101,23.6817139 0.190878549,23.9609636 0.504556871,23.9609636 L10.2875946,23.9609636 L11.0628785,23.7239191 L15.6061289,23.7239191 L16.241038,23.9609636 L23.7771723,23.9609636 C24.0219723,23.9609636 24.2314268,23.7876739 24.2740226,23.549835 L27.6515779,4.6596663 L22.3574128,9.93064329e-06 Z" id="Fill-1" fill="#2A65F5"></path>
            <path d="M22.357443,-1.70666899e-13 L27.6516081,4.65965637 L22.1255325,4.65965637 C21.8119549,4.65965637 21.5742039,4.38030738 21.6286822,4.07573455 L21.6286822,4.07573455 L22.357443,-1.70666899e-13 Z" id="形状结合" fill="#00DCFF" fill-rule="nonzero"></path>
            <mask id="mask-2" fill="white">
                <use xlink:href="#path-1"></use>
            </mask>
            <use id="形状结合" fill="#FFFFFF" xlink:href="#path-1"></use>
        </g>
    </g>
</svg>