<?xml version="1.0" encoding="UTF-8"?>
<svg id="_图层_1" data-name="图层_1" xmlns="http://www.w3.org/2000/svg" viewBox="0 0 406.87 167.47">
  <defs>
    <style>
      .cls-1 {
        fill: #2672dd;
      }

      .cls-2 {
        fill: #ec1c24;
      }

      .cls-3 {
        fill: #004281;
      }

      .cls-4 {
        fill: #808184;
      }
    </style>
  </defs>
  <path class="cls-2" d="M46.87,1.3H0v93.67h93.74V1.3h-46.87ZM82.37,41.76h-33.41V12.67h33.41v29.09ZM11.38,12.67h25.99v70.92H11.38V12.67ZM48.96,83.59v-30.17h33.41v30.17h-33.41Z"/>
  <g>
    <path class="cls-3" d="M402.48,25.7c3.17-.07,3.82-3.6,3.82-3.6V1.58h-41.33v51.05c0,1.51-1.15,1.8-1.73,1.87h-.43v7.99h6.62c5.18,0,6.19-6.05,6.19-6.05v-18.5h11.09v2.59h-8.78v21.96h22.18c3.6,0,6.19-6.48,6.19-6.48v-15.48h-9.86v-2.66h9.86v-9.43h-9.86v-2.74s2.81.07,6.05,0ZM386.06,25.85h.07v2.59h-9.86V10.73h19.66v6.48h-13.32l-5.98,8.64h9.43ZM397.37,49.18v3.17s-.14,1.87-1.87,2.02h-8.93v-5.18h10.8Z"/>
    <path class="cls-3" d="M363.53,30.17v-9.14h-2.38v-4.32h2.45V6.7h-2.59V1.58h-10.3v5.11h-5.62l-.14,10.37h5.76v6.48l-5.62,9.5v19.44l5.62-8.71v9.14c0,1.66-1.37,1.87-1.37,1.87h-4.75v8.06s4.1.14,9.29,0c5.18-.07,7.27-7.13,7.27-7.13v-25.56h2.38Z"/>
  </g>
  <g>
    <path class="cls-3" d="M306.22,36.29h-9v1.66h-13.82v-1.58h-8.28s-.65-.22,0-.29c6.41-.43,9.14-8.35,9.14-8.35v-3.53h-8.06s-.07-.07-.58,0c-.36,4.03-3.46,3.46-3.46,3.46v8.57h2.52v1.73h-2.52v8.64h1.94c.36,1.44,6.48,7.85,6.48,7.85h-7.92v8.64h9.58s1.01-.22,3.1-.79c1.94-.5,3.24-1.58,4.68-2.02.07,0,.14.07.22.07s.14.07.22.07c2.09,1.01,7.56,2.59,7.56,2.59h10.01v-8.64h-8.57c.86-.43,2.02-1.73,3.17-3.17,1.73-2.16,3.31-4.61,3.31-4.61h2.45v-8.64h-2.16v-1.66ZM290.74,50.98s-.22.29-.29.29c-.07-.07-.14-.14-.22-.14-2.09-1.3-3.96-4.9-3.96-4.9h8.71c-.94,2.38-4.25,4.75-4.25,4.75Z"/>
    <path class="cls-3" d="M305.35,24.62h-8.57c0,5.83,2.88,8.71,5.83,10.15,2.88,1.44,5.76,1.44,5.76,1.44v-8.57c-2.59,0-3.02-3.02-3.02-3.02Z"/>
    <path class="cls-3" d="M313.63,19.66c3.89-.07,4.82-5.98,4.82-5.98h16.56V4.18h-14.18l.14-.58.94-3.1h-10.8s-.65,2.38-1.37,6.48c-.72,4.18-3.46,3.96-3.46,3.96v3.74h-10.01v-1.01h.94c2.23-.79,3.96-1.66,5.4-2.66,5.47-3.82,5.4-8.57,5.4-8.57h-8.21s-.22.07-.94.07c-.65,1.51-2.52,2.59-2.52,2.59V.43h-11.3c-.07,0,.07,4.32,0,4.68-1.8-.29-3.24-2.52-3.24-2.52h-9.94c4.68,10.58,12.74,10.94,12.74,10.94v1.08h-12.53v8.21h13.03v12.02h11.16v-12.02h10.73l8.06,19.73s-1.15,5.9-1.58,7.63c-.5,1.73-2.23,4.18-2.23,4.18h-1.58v8.64h6.62c2.52,0,4.46-3.31,4.46-3.31,0,0,.36-2.3.65-.79.29,2.81,3.46,3.96,3.46,3.96h9.86v-8.57s-.43.14-1.94,0c-1.58-.07-2.3-2.59-2.3-2.59,0,0-3.02-7.49-3.38-8.86-.43-1.37-.58-2.16-.58-2.16l7.92-24.34h-10.8l-3.02,10.01-2.16-5.18h-9.65v-1.51s1.01.14,4.82,0Z"/>
  </g>
  <g>
    <path class="cls-3" d="M238.32,2.52h-.43V0h-14.47v2.38h-25.2v10.01h6.19v36.79s-.65,3.31-3.02,3.46c-2.38.14-3.02,0-3.02,0v9.72h12.24s5.69-2.09,5.69-6.84V12.53h44.57V2.52h-22.54Z"/>
    <path class="cls-3" d="M223.42,20.59l-6.41,9.5h30.53v19.73s-1.01,3.17-3.96,3.17h-6.91v9.5h16.56s6.41-2.45,6.41-8.35V20.59h-36.22Z"/>
  </g>
  <g>
    <path class="cls-3" d="M165.46,1.73h-39.17v9.22h6.05v39.31s-.58,2.88-2.74,2.88h-3.02v9.36h11.3s5.26-1.22,6.05-6.48V11.09h43.63V1.73h-22.1Z"/>
    <path class="cls-3" d="M150.62,20.66l-5.9,9.36h29.45v20.09s-1.15,2.88-3.67,3.02h-7.13v9.22h17.28s5.47-1.58,5.47-8.57V20.66h-35.5Z"/>
  </g>
  <path class="cls-4" d="M398.59,73.8h-7.34l-7.7,21.38h6.98l.72-2.45h7.99l1.08,2.52h6.55l-8.28-21.46ZM395.21,88.42h-2.66l2.52-8.06.14.5,2.74,7.56h-2.74Z"/>
  <polygon class="cls-4" points="368.35 79.27 368.35 95.26 374.98 95.26 374.98 79.34 381.82 79.34 381.82 73.8 361.44 73.8 361.44 79.27 368.35 79.27"/>
  <g>
    <path class="cls-4" d="M351.29,73.8h-7.34l-7.7,21.38h6.98l.72-2.45h7.99l1.08,2.52h6.55l-8.28-21.46ZM347.83,88.42h-2.66l2.52-8.06.14.5,2.74,7.56h-2.74Z"/>
    <path class="cls-4" d="M330.84,75.46c-1.87-1.44-2.66-1.15-4.75-1.66h-12.53v21.46h13.75s2.52-.5,4.03-1.94c1.44-1.51,3.53-4.46,3.46-9.29-.14-4.75-2.09-7.13-3.96-8.57ZM327.31,87.19s-.65,2.45-3.38,2.81h-.29c-2.95.22-3.17,0-3.17,0v-11.02h3.96c1.08,0,2.95,2.02,2.88,3.1-.07,1.8,0,5.11,0,5.11Z"/>
  </g>
  <polygon class="cls-4" points="266.98 73.8 266.98 85.39 258.98 73.8 252.72 73.8 252.72 95.26 259.06 95.26 259.06 84.17 266.62 95.26 273.38 95.26 273.38 73.8 266.98 73.8"/>
  <path class="cls-4" d="M290.95,83.38v4.68h3.1s.14.07-.58,1.15c-.72,1.08-3.38,1.87-4.9,1.22-1.58-.58-2.81-1.8-2.88-5.76-.14-4.03,1.37-6.48,4.1-6.62,2.74-.14,4.1,2.95,4.1,2.95h6.77s.14-1.44-1.66-4.25c-2.66-3.82-11.23-5.9-16.56-1.3-5.33,4.61-4.61,12.6-1.66,16.99,2.95,4.39,10.01,4.68,14.69,2.66,4.75-2.09,5.4-7.56,5.4-7.56v-4.18h-9.94Z"/>
  <path class="cls-4" d="M240.98,73.8h-7.06l-8.21,21.46h7.42l.58-2.45h7.78l.94,2.52h6.62l-8.06-21.53ZM237.53,88.27h-2.45l2.38-7.7.07.36,2.45,7.34h-2.45Z"/>
  <polygon class="cls-4" points="196.13 73.73 196.13 85.54 188.35 73.8 181.51 73.8 181.51 95.26 188.57 95.26 188.57 84.17 195.84 95.18 202.68 95.18 202.68 73.73 196.13 73.73"/>
  <polygon class="cls-4" points="224.57 78.91 224.57 73.73 207.86 73.73 207.86 95.26 214.56 95.26 214.56 88.85 222.77 88.85 222.77 83.59 214.56 83.59 214.56 78.91 224.57 78.91"/>
  <polygon class="cls-4" points="123.55 73.73 130.18 73.73 133.34 84.67 135.36 73.8 141.84 73.8 144.07 84.89 147.02 73.73 153.86 73.73 148.25 95.26 140.9 95.26 138.96 83.38 136.37 95.26 129.02 95.26 123.55 73.73 123.55 73.73"/>
  <path class="cls-4" d="M170.64,73.73h-8.14l-7.56,21.53h6.84l.72-2.38h8.14l.94,2.38h6.62l-7.56-21.53ZM166.54,88.34h-2.16l2.16-7.2h.07l2.16,7.2h-2.23Z"/>
  <path class="cls-1" d="M12.1,118.24c-1.49,7.16-4.05,14.18-7.22,18.79-.9-.84-2.99-2.27-4.15-2.97,3.09-4.04,5.24-10.4,6.43-16.81l4.94.99ZM17.38,126.66v10.63c0,9.18-1.88,22.01-12.9,29.96-.67-1.05-2.58-3.09-3.62-3.85,10.24-7.32,11.36-17.98,11.36-26.17v-10.57h5.16ZM26.99,138.89v4.86H1.54v-4.86h25.45ZM25.52,124.34v4.74H7.16v-4.74h18.36ZM27.1,158.38l-3.46,4.34c-2.38-3.61-8.21-10.69-10.82-13.61l3.14-2.91c2.15,1.95,9.45,10.19,11.14,12.18ZM48.6,121.94v43.23h-5.16v-38.43h-9.9v39.1h-4.95v-43.9h20.01ZM46.28,156.89v4.83h-15.48v-4.83h15.48Z"/>
  <path class="cls-1" d="M82.91,134.07v4.92h-9.95v-4.92h9.95ZM78.86,118.43c2.94,2.36,6.81,5.77,8.63,8.03l-3.52,3.55c-1.75-2.34-5.51-5.93-8.45-8.49l3.33-3.09ZM76.85,162.74c1.18-1.02,3.18-3.34,3.18-6.41v-22.26h4.95v25.16s-5.01,4.87-5.01,6.88c-.6-.98-2.24-2.67-3.13-3.38ZM78.84,161.3l1.1-1.86,10.34-8.2c.43,1.38,1.37,3.43,1.98,4.42-9.74,7.93-11.39,9.27-12.28,10.46l-1.14-4.82ZM102.9,151.68c-1.9,6.08-5.13,11.9-8.71,15.65-1-.82-3.26-2.24-4.52-2.94,3.57-3.31,6.4-8.51,7.95-13.85l5.27,1.14ZM119.1,120.92v24.74h-25.1v-24.74h25.1ZM99.07,140.77h14.74v-14.97h-14.74v14.97ZM114.61,150.35c2.96,4.63,6.18,10.72,7.35,14.63l-5.11,2c-1.11-3.9-4.1-10.19-6.97-14.95l4.73-1.68Z"/>
  <path class="cls-1" d="M151.76,119.2v19.53c0,8.52-.54,20.73-4.3,28.73-.9-.78-2.97-1.94-4.16-2.38,3.57-7.53,3.84-18.39,3.84-26.36v-19.53h4.62ZM161.55,144.44v4.83h-12.46v-4.83h12.46ZM161.55,119.2v4.74h-12.39v-4.74h12.39ZM161.7,131.67v4.74h-12.54v-4.74h12.54ZM163.44,119.2v42.39c0,2.52-.46,4.01-2,4.86-1.53.84-3.77.96-7.4.94-.14-1.29-.75-3.6-1.41-4.9,2.26.08,4.44.05,5.11.03.69-.02.95-.24.95-1.01v-42.3h4.74ZM187.65,119.32v4.74h-15.38v43.32h-4.83v-48.06h20.22ZM189.56,137.88v4.67h-19.31v-4.67h19.31ZM189.03,137.88l.84-.17,3,1.01c-2.56,13.94-9.1,23.33-17.7,28.45-.62-1.13-1.95-2.88-2.96-3.75,7.63-4.04,13.83-13.24,15.95-24.66v-.89h.87ZM194.45,163.5c-1.1.93-2.52,2.71-3.27,3.93-8.74-4.74-14.77-14.19-18.16-25.44l4.03-1.07c2.96,9.9,9.05,18.63,17.4,22.58ZM191.26,119.32v10.48c0,2.37-.51,3.66-2.46,4.34-1.88.69-4.77.69-8.88.69-.23-1.36-.95-3.11-1.56-4.32,3.02.12,6.05.12,6.88.06.86-.02,1.09-.21,1.09-.86v-10.38h4.92Z"/>
  <path class="cls-1" d="M256.42,122.64l.83-.23,3.12,2.06c-7.94,11.89-25.9,17.3-43.06,19.32-.35-1.28-1.22-3.32-2-4.48,16.41-1.47,33.72-6.43,40.12-16.04v-.63h.98ZM241.63,142.76c-2.33,14.46-9.41,21.09-22.89,24.54-.5-1.1-1.97-3.28-2.91-4.29,12.69-2.48,18.97-8.21,20.5-20.69l5.3.43ZM238.29,118.24c-3.75,6.14-9.4,11.96-17.82,16.48-.63-1.19-2.07-3.07-3.08-3.89,7.65-3.71,12.87-8.96,15.64-13.64l5.25,1.05ZM256.93,147.37v4.43h-37.42v-4.43h37.42ZM265.06,138.61c-1.04,1.13-2.24,3.17-2.85,4.53-15.92-1.25-28.75-5.24-35.92-14.06l4.21-1.74c5.97,7.15,18.95,10.47,34.56,11.27ZM256.67,122.64v4.32h-26.54v-4.32h26.54ZM260.35,147.37s-.11,1.46-.26,2.14c-1.21,9.61-2.45,13.82-4.42,15.54-1.33,1.25-2.78,1.58-4.97,1.7-1.8.09-5.14.07-8.51-.12-.08-1.33-.75-3.22-1.63-4.46,3.48.32,7.16.38,8.61.38,1.14,0,1.83-.05,2.47-.55,1.43-1.12,2.63-5.22,3.59-13.95l.03-.69h5.09Z"/>
  <path class="cls-1" d="M335.55,143.68v5.13h-48.77v-5.13h48.77ZM332.46,120.77v5.07h-42.84v-5.07h42.84ZM297.81,128.05c2.03,3.74,4.12,8.62,4.82,11.72l-4.94,1.62c-.67-3.09-2.58-8.12-4.53-11.95l4.64-1.39ZM313.69,122.83v44.52h-5.31v-44.52h5.31ZM329.72,129.29c-1.98,4.28-4.39,9.1-6.37,12.17l-4.44-1.38c1.89-3.28,4.16-8.48,5.36-12.23l5.45,1.44Z"/>
  <path class="cls-1" d="M360.48,135.02c1.33-.28,2.67-1.4,4.47-3.14,1.93-1.77,8.08-8.5,12.07-15.11l5.13,2.21c-5.04,7.06-11.13,13.71-16.81,18.35v.14s-3.18,1.54-3.18,2.51c-.24-1.04-1.08-3.59-1.69-4.96ZM362.1,135.99l3.61-1.87,33.95-1.38c.05,1.4.26,3.5.51,4.58-31.94,1.68-35.52,1.78-38.01,2.66l-.06-3.99ZM400.06,144.13v23.13h-5.46v-18.24h-24.83v18.33h-5.22v-23.23h35.51ZM397.23,159.55v4.95h-30.12v-4.95h30.12ZM391.26,122.87c5.13,4.65,11.52,11.32,14.37,15.84l-4.36,3.17c-2.64-4.57-8.8-11.45-14-16.34l3.99-2.68Z"/>
</svg>