<?xml version="1.0" encoding="UTF-8"?>
<svg width="309px" height="24px" viewBox="0 0 309 24" version="1.1" xmlns="http://www.w3.org/2000/svg" xmlns:xlink="http://www.w3.org/1999/xlink">
    <title>309-24</title>
    <g id="logo" stroke="none" stroke-width="1" fill="none" fill-rule="evenodd">
        <g id="画板备份-5" transform="translate(-274.000000, -120.000000)">
            <g id="309-24" transform="translate(274.000000, 120.000000)">
                <g id="编组" transform="translate(0.000000, 0.203390)">
                    <polygon id="路径-7备份" fill="#3F3F3F" transform="translate(31.518000, 15.254237) scale(-1, 1) translate(-31.518000, -15.254237) " points="26.78 8.54237288 23.484 15.8644068 39.552 21.9661017 39.552 11.7966102"></polygon>
                    <polygon id="路径-7备份-2" fill="#666666" points="10.712 8.54237288 7.416 15.8644068 23.484 21.9661017 23.484 11.7966102"></polygon>
                    <polygon id="路径-6" fill="#000000" points="23.484 -1.36043719e-13 -2.59502628e-13 5.89830508 23.484 11.7966102 47.174 5.89830508"></polygon>
                    <polyline id="路径-8" stroke="#136FCF" stroke-width="1.236" points="23.484 5.69491525 40.17 7.3220339 40.17 23.1864407"></polyline>
                    <rect id="矩形" fill="#F6BC03" x="39.346" y="13.220339" width="1.648" height="2.44067797"></rect>
                    <rect id="矩形备份" fill="#0260BC" x="39.346" y="15.6610169" width="1.648" height="8.13559322"></rect>
                </g>
                <path d="M62.50864,0.203389831 L66.53182,1.08162712 L65.805052,1.77355932 L65.805052,5.82589831 L70.864,5.89830508 L72.1,4.27118644 L74.984,5.89830508 L74.16,7.11864407 L74.16,16.0677966 L70.71156,16.0677966 L70.710736,14.228339 L65.805052,14.228339 L65.805052,20.8145085 C65.805052,21.3783051 65.813704,21.9762712 65.831008,22.6084068 L65.865,23.1863898 L62.479,23.1863898 L62.482684,23.1209492 C62.499988,22.4375593 62.50864,21.6687458 62.50864,20.8145085 L62.50864,14.6351186 L57.680824,14.6351186 L57.68,16.0677966 L54.178,16.0677966 L54.178,4.06779661 L57.68,5.08474576 L57.68,5.89830508 L62.50864,5.89830508 L62.50864,0.203389831 Z M62.50864,7.07837288 L57.68,7.11864407 L57.680824,13.3826441 L62.50864,13.3826441 L62.50864,7.07837288 Z M70.710736,7.07837288 L65.805052,7.07837288 L65.805052,13.3826441 L70.710736,13.3826441 L70.710736,7.07837288 Z" id="形状结合" fill="#2B2E33" fill-rule="nonzero"></path>
                <path d="M98.262,0.203389831 L101.352,1.83050847 L100.407314,3.11267797 L100.322,23.1864407 L97.026,23.1864407 L97.026,21.9181017 L83.1300179,21.9181017 L83.1300179,23.1864407 L79.7209836,23.1864407 L79.722,0.406779661 L83.224,1.01694915 L83.224,1.83050847 L97.232,1.83050847 L98.262,0.203389831 Z M83.0177953,3.17410169 L82.9907518,20.6656271 L96.9987518,20.6656271 L96.9987518,3.23095517 L83.0177953,3.17410169 Z M95.172,4.88135593 L95.996,7.11864407 L91.669,7.11835593 L91.669,10.7783559 L92.907,10.7791017 L94.554,9.96610169 L95.378,12.2033898 L91.669,12.2033559 L91.669,16.6773559 L93.525,16.6774068 L95.172,15.8644068 L95.996,18.1016949 L84.872,18.1016949 L84.048,16.6779661 L88.373,16.6773559 L88.373,12.2033559 L85.696,12.2033898 L84.872,10.779661 L88.373,10.7793559 L88.373,7.11835593 L84.872,7.11864407 L84.048,5.69491525 L93.525,5.69435593 L95.172,4.88135593 Z M92.288,12.8135593 C93.0032838,12.9427988 93.5526171,13.0783921 93.936,13.220339 C94.3193829,13.3622859 94.8687162,13.6334723 95.584,14.0338983 L93.524,16.0677966 L92.288,12.8135593 Z" id="形状结合" fill="#2B2E33" fill-rule="nonzero"></path>
                <path d="M141.316,9.55932203 C141.324728,10.5141714 141.305809,11.3957717 141.259245,12.204123 L144.748,12.2032712 L145.848,10.5762712 L148.732,12.4067797 L147.954385,13.5605764 C148.00925,13.5738021 148.006309,13.5918115 147.945561,13.6146047 L147.908,13.6271186 L147.959706,19.4660339 C147.942402,19.995661 148.077744,20.6517966 148.32,20.7457627 C148.562256,20.8397288 150.44592,20.9166102 150.792,20.7457627 C151.13808,20.5749153 151.564088,16.8813559 151.616,16.8813559 C151.626382,16.8813559 151.715012,17.0459878 151.850174,17.312269 L151.999673,17.6101007 C152.189444,17.9916583 152.428162,18.4829966 152.665467,18.9841017 L152.867351,19.4136795 C153.298926,20.3395055 153.676,21.200461 153.676,21.3559322 C153.676,21.8513898 153.295312,22.291322 152.533936,22.6757288 C151.77256,23.0601356 151.347376,23.204339 149.097856,23.204339 C147.194416,23.204339 145.952854,23.0078644 145.37317,22.6149153 C144.793486,22.2219661 144.520948,21.4787797 144.555556,20.3853559 L144.612,13.6271186 L141.140168,13.6283772 C140.897568,15.776893 140.406846,17.2679989 139.668,18.1016949 C137.745333,20.2711864 135.273333,21.7627119 132.252,22.5762712 C135.548,19.5932203 137.333333,17.1525424 137.608,15.2542373 C137.686476,14.7118644 137.753741,14.1694915 137.809796,13.6271186 L133.614986,13.6271186 L132.87,12.2033898 L137.931155,12.2038896 C137.990385,11.3223671 138.02,10.4408445 138.02,9.55932203 L141.316,9.55932203 Z M140.08,5.49152542 C139.530667,6.84745763 138.569333,8.06779661 137.196,9.15254237 C135.822667,10.2372881 133.762667,11.1864407 131.016,12 C132.518673,10.6433776 133.61734,9.55863187 134.312,8.74576271 C135.00666,7.93289356 135.761994,6.84814779 136.578,5.49152542 L140.08,5.49152542 Z M142.964,5.49152542 C145.223825,5.86663667 146.871825,6.27341633 147.908,6.71186441 C149.462262,7.36953652 151.082833,8.24337845 151.204,9.55932203 C151.288833,10.4806666 149.345118,11.5900072 148.732,11.1864407 C147.767061,10.5512991 146.751439,9.21044617 145.848,8.33898305 C145.267925,7.7794388 144.49039,7.01378431 143.515397,6.04201959 L142.964,5.49152542 Z M142.758,0.203389831 C143.417039,0.420286017 144.120003,0.723919497 144.866893,1.11429027 C144.921697,1.14296066 144.969183,1.18378823 145.005941,1.23353007 C145.141172,1.41652647 145.10245,1.67450058 144.917781,1.80746822 L143.512,2.847 L149.829,2.847 L151.204,1.83050847 L152.852,3.86440678 L149.556,7.11864407 L149.555,4.067 L134.280672,4.06925169 C134.244055,4.70638248 134.185831,5.24827033 134.106,5.69491525 C133.919852,6.73638776 133.576519,7.48215047 133.076,7.93220339 L130.604,5.08474576 C131.428,4.54237288 132.114667,4 132.664,3.45762712 C133.213333,2.91525424 133.762667,2.10169492 134.312,1.01694915 C134.327589,1.68031027 134.331197,2.29085619 134.322822,2.84858692 L141.637394,2.8459869 C141.414244,2.46421457 141.169779,2.12572177 140.904,1.83050847 C140.421856,1.29496951 139.73519,0.752596624 138.844,0.203389831 C140.629333,-0.0677966102 141.934,-0.0677966102 142.758,0.203389831 Z" id="形状结合" fill="#2B2E33" fill-rule="nonzero"></path>
                <path d="M201.88,12 L204.764,13.8305085 L204.186376,14.6320678 L204.146,23.3898305 L200.7779,23.3581017 L200.7779,22.2032542 L194.464,22.1694915 L194.464,23.3837288 L191.168,23.3898305 L191.168,12.2904407 L194.57936,12.8135593 L194.581008,13.6271186 L200.85,13.6271186 L201.88,12 Z M185.194,0.203389831 L189.108,1.22033898 L188.427788,2.36867797 L188.427,5.28672697 L188.697,5.28757627 L190.344,4.47457627 L191.168,6.71186441 L188.436,6.71172697 L188.49,10.5762712 C189.545544,10.32 190.660828,9.96610169 190.756,9.96610169 C190.851172,9.96610169 190.898758,9.99172881 190.898758,10.0429831 C190.898758,10.1454915 188.696,12 188.49,12.3685424 L188.427788,19.7255593 C188.358702,20.7043583 188.284,21.1525424 187.46,21.9661017 C186.636,22.779661 185.004089,23.1943834 184.576,22.9830508 C183.752,22.5762712 182.516,19.992 182.516,19.9322034 C182.516,19.8724068 183.705444,20.3987797 184.164,20.3389831 C184.622556,20.2791864 184.912398,19.8536949 185.042178,19.6999322 C185.171958,19.5461695 185.236848,19.2984407 185.236848,18.9567458 L185.194,14.6440678 L183.34,15.2542373 C182.391301,13.303322 181.841968,12.0829831 181.692,11.5932203 L185.194,11.3898305 L185.194,6.71172697 L182.516,6.71186441 L181.692,5.28813559 L185.194,5.28772697 L185.194,0.203389831 Z M194.502087,15.0508475 L194.464,20.9507797 L200.85,20.9507797 L200.85,15.0524746 L194.502087,15.0508475 Z M202.228308,0.154726968 L204.97,2.03389831 L204.083788,3.18223729 L204.083788,7.92894915 C204.014702,8.90774817 203.94,9.3559322 203.116,10.1694915 C202.292,10.9830508 200.660089,11.3977733 200.232,11.1864407 C199.408,10.779661 198.172,8.19538983 198.172,8.13559322 C198.172,8.07579661 199.361444,8.60216949 199.82,8.54237288 C200.278556,8.48257627 200.568398,8.05708475 200.698178,7.90332203 C200.827958,7.74955932 200.892848,7.50183051 200.892848,7.16013559 L200.86,3.25372697 L197.964122,3.25537724 C197.077771,5.82422237 196.323064,7.51875764 195.7,8.33898305 C193.228,11.5932203 189.929503,12.2046227 190.344,12 C190.75278,11.7981998 192.816,9.96610169 194.052,6.30508475 C194.333135,5.47236772 194.524688,4.45605927 194.62666,3.2561594 L191.992,3.25423729 L191.168,1.83050847 L201,1.82972697 L202.228308,0.154726968 Z" id="形状结合" fill="#2B2E33" fill-rule="nonzero"></path>
                <path d="M306.116,0.203389831 L309,2.23728814 L308.176,3.05084746 L308.113788,5.22061017 L308.113788,19.7255593 C308.044702,20.7043583 307.97,21.1525424 307.146,21.9661017 C306.322,22.779661 304.690089,23.1943834 304.262,22.9830508 C303.438,22.5762712 302.202,19.992 302.202,19.9322034 C302.202,19.8724068 303.391444,20.3987797 303.85,20.3389831 C304.308556,20.2791864 304.598398,19.8536949 304.728178,19.6999322 C304.857958,19.5461695 304.922848,19.2984407 304.922848,18.9567458 L304.886,3.05038983 L291.366,3.05038983 L291.284,3.25423729 L291.442,18.5223898 L291.481638,18.4255455 C292.446864,16.0046448 293.067651,13.9983895 293.344,12.4067797 C293.468222,11.6913356 293.576678,10.8078284 293.669369,9.75625791 C293.239121,8.54478089 292.718466,7.12333101 292.108,5.49152542 C292.732861,6.10846942 293.311654,6.69509011 293.844378,7.2513875 C293.889895,6.39924332 293.929384,5.47353927 293.962,4.47457627 L297.464,4.47457627 C297.090913,6.69318818 296.722072,8.5563222 296.357476,10.0639783 C298.168826,12.2913573 298.812364,13.7503852 298.288,14.440678 C297.464,15.5254237 296.571333,16.3389831 295.61,16.8813559 C295.496521,15.9578082 295.30906,14.9961799 295.047619,13.996471 C294.320397,15.417363 293.119704,17.0013772 291.445703,18.7475888 L291.49,23.1864407 L288.194,23.1864407 L287.988,0.406779661 L292.108,1.22033898 L291.86,1.83038983 L304.969,1.83038983 L306.116,0.203389831 Z M304.468,4.47457627 C303.94971,7.55665715 303.439614,9.95271614 302.937711,11.6627533 C304.190454,13.5885977 304.572812,14.8361498 304.085387,15.4048845 C303.241796,16.3891988 302.444655,17.2875616 301.693965,18.0999729 C301.631446,17.1182728 301.501436,16.1233846 301.303936,15.1153082 C300.300389,16.5031743 298.745501,18.1769482 296.64,20.1355932 C298.288,16.8813559 299.386667,14.3050847 299.936,12.4067797 C300.051974,12.0060139 300.158766,11.572009 300.256377,11.1047649 C299.868859,9.78837896 299.383333,8.20359286 298.80023,6.35204827 C299.483567,7.14239671 300.103113,7.88296011 300.658869,8.57373845 C300.802007,7.35683033 300.904595,5.99024957 300.966,4.47457627 L304.468,4.47457627 Z" id="形状结合" fill="#2B2E33" fill-rule="nonzero"></path>
                <path d="M252.968,13.0169492 L255.852,14.8474576 L255.274376,15.6490169 L255.234,23.3898305 L251.8659,23.3581017 L251.8659,22.2032542 L245.552,22.1694915 L245.552,23.3837288 L242.256,23.3898305 L242.256,13.3073898 L245.66736,13.8305085 L245.669008,14.6440678 L251.938,14.6440678 L252.968,13.0169492 Z M241.844,0.203389831 C240.745333,3.18644068 239.646667,5.3559322 238.548,6.71186441 C238.360375,6.94342378 238.152724,7.18684652 237.925047,7.44213264 L240.402,7.93220339 L239.578,9.96610169 L239.578,23.3898305 L236.282,23.3898305 L236.283306,9.15096412 C235.411837,10.0064712 234.381402,10.9561498 233.192,12 C234.290667,9.83050847 235.114667,8.06779661 235.664,6.71186441 C236.213333,5.3559322 236.831333,3.18644068 237.518,0.203389831 L241.844,0.203389831 Z M245.590087,15.8660339 L245.552,20.7473898 L251.938,20.7473898 L251.938,15.8673801 L245.590087,15.8660339 Z M255.028,9.55932203 L255.852,11.7966102 L242.874,11.7966102 L242.05,10.3728814 L253.381,10.372322 L255.028,9.55932203 Z M255.028,6.10169492 L255.852,8.33898305 L242.874,8.33898305 L242.05,6.91525424 L253.381,6.91469492 L255.028,6.10169492 Z M249.054,0.406779661 C249.791898,0.614936441 250.48934,0.863037368 251.146325,1.15108244 C251.203311,1.17425377 251.253523,1.2110663 251.293852,1.25749633 C251.443065,1.42928232 251.424766,1.6895037 251.252406,1.83805614 L249.142,3.66038983 L254.205,3.66045763 L255.852,2.84745763 L256.676,5.08474576 L242.256,5.08474576 L241.432,3.66101695 L248.155127,3.66016394 C247.875162,3.10787891 247.556786,2.63358697 247.2,2.23728814 C246.717856,1.70174917 246.03119,1.09157967 245.14,0.406779661 C246.788,0.13559322 248.092667,0.13559322 249.054,0.406779661 Z" id="形状结合" fill="#2B2E33" fill-rule="nonzero"></path>
                <path d="M265.43924,15.2135593 L269.496363,16.9736949 L268.931525,17.5118644 L268.931525,19.4595254 C268.931525,20.0062373 269.148046,20.2861017 269.581089,20.5423729 C270.014132,20.7986441 275.016091,20.7132203 275.628,20.5423729 C276.035939,20.4284746 276.447939,19.2081356 276.864,16.8813559 C277.1603,17.4973711 277.50417,18.1753372 277.89561,18.9152542 C278.445081,19.9538877 279.158428,20.7591928 279.158428,20.9491525 C279.158428,21.3421017 278.824232,21.7649492 278.155839,22.2176949 C277.487447,22.6704407 276.541342,22.9352542 275.317525,23.0121356 C274.093708,23.0890169 273.015807,23.1274576 272.083823,23.1274576 C271.151839,23.1274576 270.083353,23.0847458 268.878363,22.999322 C267.673374,22.9138983 266.764925,22.6960678 266.153017,22.3458305 C265.541108,21.9955932 265.441154,21.1456271 265.441154,19.7959322 L265.441154,17.9251525 L265.43924,15.2135593 Z M278.1,15.6610169 C279.959489,16.4121995 281.332823,17.2257588 282.22,18.1016949 C283.550766,19.4155991 283.490458,19.8077045 283.044,20.5423729 C282.597542,21.2770413 279.748,22.9830508 279.748,22.1694915 C279.748,21.8068508 279.82716,20.7327052 279.336,18.9152542 C279.173714,18.3147435 278.761714,17.2299977 278.1,15.6610169 Z M264.092,15.6610169 C263.562798,19.8108907 263.288131,21.9803823 263.268,22.1694915 C263.200255,22.8058719 260.672052,21.1532836 260.384,20.5423729 C260.095948,19.9314622 261.119769,19.0896207 262.032,18.1016949 C262.640154,17.4430777 263.326821,16.6295184 264.092,15.6610169 Z M269.782418,14.2606737 C271.299493,14.6973221 272.441483,15.2222254 273.208388,15.8353834 C274.358744,16.7551205 274.344221,17.0667275 274.056169,17.6776383 C273.768117,18.288549 271.681214,19.8543245 271.613469,19.2179441 C271.583272,18.9342802 271.555749,18.087639 271.020217,16.7058657 C270.84327,16.2493089 270.43067,15.4342449 269.782418,14.2606737 Z M271.508,0.610169492 C272.084407,0.765379517 272.771074,1.03656596 273.568,1.42372881 C272.685807,1.75613154 271.861807,2.1629112 271.096,2.6440678 C270.691887,2.89797189 270.309812,3.16892243 269.949775,3.45691939 L276.452,3.45762712 L277.482,1.83050847 L280.366,3.66101695 L279.788376,4.46257627 L279.748,14.6440678 L276.3799,14.6440678 L276.3799,13.4574915 L266.976,13.4237288 L266.976,14.6379661 L263.68,14.6440678 L263.68,2.12094915 L267.09136,2.6440678 L267.093008,3.45762712 L269.035488,3.45747794 L269.036,0.406779661 C270.107593,0.387162856 270.931593,0.454959466 271.508,0.610169492 Z M276.245488,10.3724779 L267.190488,10.3724779 L267.182,12.2033898 L276.246,12.2033898 L276.245488,10.3724779 Z M276.245488,7.52447794 L267.205488,7.52447794 L267.197488,9.15247794 L276.245488,9.15247794 L276.245488,7.52447794 Z M267.219241,4.88135593 L267.211488,6.30447794 L276.245488,6.30447794 L276.246,4.88298305 L267.219241,4.88135593 Z" id="形状结合" fill="#2B2E33" fill-rule="nonzero"></path>
                <path d="M166.036,0.203389831 L170.156,1.01694915 L169.332,3.05084746 L169.332,6.50738983 L174.689,6.50791525 L176.336,5.69491525 L177.16,7.93220339 L169.332,7.93138983 L169.332,13.8293898 L173.865,13.8299492 L175.512,13.0169492 L176.336,15.2542373 L169.332,15.2533898 L169.332,21.5583898 L175.719,21.5587627 L177.366,20.7457627 L178.19,22.9830508 L157.384,22.9830508 L156.56,21.559322 L166.036,21.5583898 L166.036,15.2533898 L159.032,15.2542373 L158.208,13.8305085 L166.036,13.8293898 L166.036,7.93138983 L160.268,7.93220339 C159.484049,9.07046494 158.110716,10.5619904 156.148,12.4067797 C157.246667,9.96610169 157.933333,8.20338983 158.208,7.11864407 C158.482667,6.03389831 158.826,4.27118644 159.238,1.83050847 L163.564,1.83050847 C162.617803,3.7917035 161.812652,5.35149971 161.148548,6.50989713 L166.036,6.50838983 L166.036,0.203389831 Z" id="形状结合" fill="#2B2E33"></path>
                <path d="M218.36,0.203389831 L222.48,1.01694915 L221.656,3.05084746 L221.656,6.50738983 L227.013,6.50791525 L228.66,5.69491525 L229.484,7.93220339 L221.656,7.93138983 L221.656,13.8293898 L226.189,13.8299492 L227.836,13.0169492 L228.66,15.2542373 L221.656,15.2533898 L221.656,21.5583898 L228.043,21.5587627 L229.69,20.7457627 L230.514,22.9830508 L209.708,22.9830508 L208.884,21.559322 L218.36,21.5583898 L218.36,15.2533898 L211.356,15.2542373 L210.532,13.8305085 L218.36,13.8293898 L218.36,7.93138983 L212.592,7.93220339 C211.808049,9.07046494 210.434716,10.5619904 208.472,12.4067797 C209.570667,9.96610169 210.257333,8.20338983 210.532,7.11864407 C210.806667,6.03389831 211.15,4.27118644 211.562,1.83050847 L215.888,1.83050847 C214.941803,3.7917035 214.136652,5.35149971 213.472548,6.50989713 L218.36,6.50838983 L218.36,0.203389831 Z" id="形状结合" fill="#2B2E33"></path>
                <path d="M126.072,0.203389831 L126.896,2.23728814 L124.63,2.23728814 L124.63,10.3713898 L124.75331,10.372322 L126.072,9.55932203 L126.896,11.5932203 L124.63,11.5923898 L124.63,23.3898305 L121.334,23.3898305 L121.334,11.5923898 L119.274,11.5932203 C119.136667,14.3050847 118.518667,16.7457627 117.42,18.9152542 C115.772,22.1694915 112.064,22.9830508 112.064,22.9830508 C112.064,22.9830508 114.124,21.3559322 114.948,18.5084746 C115.497333,16.6101695 115.840667,14.3050847 115.978,11.5932203 L115.154,11.5932203 L114.35131,10.3728814 L115.978,10.3723898 L115.978,2.23728814 L115.154,2.23728814 L114.35131,1.01694915 L124.75331,1.01638983 L126.072,0.203389831 Z M113.3,1.01694915 L114.124,3.05084746 L110.416,3.05084746 C109.87806,5.42666733 109.397173,7.23651486 108.97334,8.48039006 L108.973144,9.55894915 L110.003144,9.55894915 L111.24,7.93220339 L114.124,9.55932203 L113.3,10.779661 L113.3,19.7288136 L110.004,19.7288136 L110.003144,18.9149492 L108.973144,18.9149492 L108.974,20.5423729 L105.678,20.5423729 L105.677531,13.652099 C104.300134,15.0660126 103.355526,15.3838112 103.618,15.2542373 C104.02678,15.0524371 105.072842,12.7454673 106.09,8.33898305 C106.323157,7.32891066 106.597824,5.5661988 106.914,3.05084746 L104.648,3.05084746 L103.84531,1.83050847 L111.98131,1.82994915 L113.3,1.01694915 Z M110.003144,10.7789492 L108.973144,10.7789492 L108.973144,17.6939492 L110.003144,17.6939492 L110.003144,10.7789492 Z M121.334,2.23728814 L119.274,2.23728814 L119.274,10.3713898 L121.334,10.3713898 L121.334,2.23728814 Z" id="形状结合" fill="#2B2E33"></path>
            </g>
        </g>
    </g>
</svg>